<svg width="18" height="18" viewBox="0 0 18 18" fill="none" xmlns="http://www.w3.org/2000/svg">
<rect width="18" height="18" fill="#444444" fill-opacity="0.01"/>
<mask id="path-2-outside-1" maskUnits="userSpaceOnUse" x="1" y="2" width="16" height="14" fill="black">
<rect fill="white" x="1" y="2" width="16" height="14"/>
<path fill-rule="evenodd" clip-rule="evenodd" d="M16 3H2V6H16V3ZM3 7H15V15H3V7ZM7 9H11V10H7V9Z"/>
</mask>
<path fill-rule="evenodd" clip-rule="evenodd" d="M16 3H2V6H16V3ZM3 7H15V15H3V7ZM7 9H11V10H7V9Z" fill="#BDBDBD"/>
<path d="M2 3V2H1V3H2ZM16 3H17V2H16V3ZM2 6H1V7H2V6ZM16 6V7H17V6H16ZM15 7H16V6H15V7ZM3 7V6H2V7H3ZM15 15V16H16V15H15ZM3 15H2V16H3V15ZM11 9H12V8H11V9ZM7 9V8H6V9H7ZM11 10V11H12V10H11ZM7 10H6V11H7V10ZM2 4H16V2H2V4ZM3 6V3H1V6H3ZM16 5H2V7H16V5ZM15 3V6H17V3H15ZM15 6H3V8H15V6ZM16 15V7H14V15H16ZM3 16H15V14H3V16ZM2 7V15H4V7H2ZM11 8H7V10H11V8ZM12 10V9H10V10H12ZM7 11H11V9H7V11ZM6 9V10H8V9H6Z" fill="#3A3A3A" mask="url(#path-2-outside-1)"/>
</svg>
