<svg width="18" height="18" viewBox="0 0 18 18" fill="none" xmlns="http://www.w3.org/2000/svg">
<rect width="18" height="18" fill="#444444" fill-opacity="0.01"/>
<rect x="0.5" y="9.5" width="5" height="5" fill="#BDBDBD"/>
<rect x="0.5" y="9.5" width="5" height="5" fill="#BDBDBD"/>
<rect x="0.5" y="9.5" width="5" height="5" fill="#BDBDBD"/>
<rect x="0.5" y="9.5" width="5" height="5" fill="#BDBDBD"/>
<rect x="0.5" y="9.5" width="5" height="5" fill="#BDBDBD"/>
<rect x="0.5" y="9.5" width="5" height="5" fill="#BDBDBD"/>
<rect x="0.5" y="9.5" width="5" height="5" stroke="#3A3A3A"/>
<rect x="0.5" y="2.5" width="5" height="5" fill="#BDBDBD"/>
<rect x="0.5" y="2.5" width="5" height="5" fill="#BDBDBD"/>
<rect x="0.5" y="2.5" width="5" height="5" fill="#BDBDBD"/>
<rect x="0.5" y="2.5" width="5" height="5" fill="#BDBDBD"/>
<rect x="0.5" y="2.5" width="5" height="5" fill="#BDBDBD"/>
<rect x="0.5" y="2.5" width="5" height="5" fill="#BDBDBD"/>
<rect x="0.5" y="2.5" width="5" height="5" stroke="#3A3A3A"/>
<rect x="12.5" y="9.5" width="5" height="5" fill="#BDBDBD"/>
<rect x="12.5" y="9.5" width="5" height="5" fill="#BDBDBD"/>
<rect x="12.5" y="9.5" width="5" height="5" fill="#BDBDBD"/>
<rect x="12.5" y="9.5" width="5" height="5" fill="#BDBDBD"/>
<rect x="12.5" y="9.5" width="5" height="5" fill="#BDBDBD"/>
<rect x="12.5" y="9.5" width="5" height="5" fill="#BDBDBD"/>
<rect x="12.5" y="9.5" width="5" height="5" stroke="#3A3A3A"/>
<rect x="6.5" y="9.5" width="5" height="5" fill="#BDBDBD"/>
<rect x="6.5" y="9.5" width="5" height="5" fill="#BDBDBD"/>
<rect x="6.5" y="9.5" width="5" height="5" fill="#BDBDBD"/>
<rect x="6.5" y="9.5" width="5" height="5" fill="#BDBDBD"/>
<rect x="6.5" y="9.5" width="5" height="5" fill="#BDBDBD"/>
<rect x="6.5" y="9.5" width="5" height="5" fill="#BDBDBD"/>
<rect x="6.5" y="9.5" width="5" height="5" stroke="#3A3A3A"/>
<rect x="12.5" y="2.5" width="5" height="5" fill="#BDBDBD"/>
<rect x="12.5" y="2.5" width="5" height="5" fill="#BDBDBD"/>
<rect x="12.5" y="2.5" width="5" height="5" fill="#BDBDBD"/>
<rect x="12.5" y="2.5" width="5" height="5" fill="#BDBDBD"/>
<rect x="12.5" y="2.5" width="5" height="5" fill="#BDBDBD"/>
<rect x="12.5" y="2.5" width="5" height="5" fill="#BDBDBD"/>
<rect x="12.5" y="2.5" width="5" height="5" stroke="#3A3A3A"/>
<rect x="6.5" y="2.5" width="5" height="5" fill="#BDBDBD"/>
<rect x="6.5" y="2.5" width="5" height="5" fill="#BDBDBD"/>
<rect x="6.5" y="2.5" width="5" height="5" fill="#BDBDBD"/>
<rect x="6.5" y="2.5" width="5" height="5" fill="#BDBDBD"/>
<rect x="6.5" y="2.5" width="5" height="5" fill="#BDBDBD"/>
<rect x="6.5" y="2.5" width="5" height="5" fill="#BDBDBD"/>
<rect x="6.5" y="2.5" width="5" height="5" stroke="#3A3A3A"/>
</svg>
