<svg width="18" height="18" viewBox="0 0 18 18" fill="none" xmlns="http://www.w3.org/2000/svg">
<rect width="18" height="18" fill="#444444" fill-opacity="0.01"/>
<rect x="5.5" y="3.5" width="12" height="2" fill="#BDBDBD"/>
<rect x="5.5" y="3.5" width="12" height="2" fill="#BDBDBD"/>
<rect x="5.5" y="3.5" width="12" height="2" fill="#BDBDBD"/>
<rect x="5.5" y="3.5" width="12" height="2" fill="#BDBDBD"/>
<rect x="5.5" y="3.5" width="12" height="2" fill="#BDBDBD"/>
<rect x="5.5" y="3.5" width="12" height="2" fill="#BDBDBD"/>
<rect x="5.5" y="3.5" width="12" height="2" stroke="#3A3A3A"/>
<rect x="0.5" y="3.5" width="3" height="2" fill="#BDBDBD"/>
<rect x="0.5" y="3.5" width="3" height="2" fill="#BDBDBD"/>
<rect x="0.5" y="3.5" width="3" height="2" fill="#BDBDBD"/>
<rect x="0.5" y="3.5" width="3" height="2" fill="#BDBDBD"/>
<rect x="0.5" y="3.5" width="3" height="2" fill="#BDBDBD"/>
<rect x="0.5" y="3.5" width="3" height="2" fill="#BDBDBD"/>
<rect x="0.5" y="3.5" width="3" height="2" stroke="#3A3A3A"/>
<rect x="5.5" y="11.5" width="12" height="2" fill="#BDBDBD"/>
<rect x="5.5" y="11.5" width="12" height="2" fill="#BDBDBD"/>
<rect x="5.5" y="11.5" width="12" height="2" fill="#BDBDBD"/>
<rect x="5.5" y="11.5" width="12" height="2" fill="#BDBDBD"/>
<rect x="5.5" y="11.5" width="12" height="2" fill="#BDBDBD"/>
<rect x="5.5" y="11.5" width="12" height="2" fill="#BDBDBD"/>
<rect x="5.5" y="11.5" width="12" height="2" stroke="#3A3A3A"/>
<rect x="0.5" y="11.5" width="3" height="2" fill="#BDBDBD"/>
<rect x="0.5" y="11.5" width="3" height="2" fill="#BDBDBD"/>
<rect x="0.5" y="11.5" width="3" height="2" fill="#BDBDBD"/>
<rect x="0.5" y="11.5" width="3" height="2" fill="#BDBDBD"/>
<rect x="0.5" y="11.5" width="3" height="2" fill="#BDBDBD"/>
<rect x="0.5" y="11.5" width="3" height="2" fill="#BDBDBD"/>
<rect x="0.5" y="11.5" width="3" height="2" stroke="#3A3A3A"/>
<rect x="5.5" y="7.5" width="12" height="2" fill="#BDBDBD"/>
<rect x="5.5" y="7.5" width="12" height="2" fill="#BDBDBD"/>
<rect x="5.5" y="7.5" width="12" height="2" fill="#BDBDBD"/>
<rect x="5.5" y="7.5" width="12" height="2" fill="#BDBDBD"/>
<rect x="5.5" y="7.5" width="12" height="2" fill="#BDBDBD"/>
<rect x="5.5" y="7.5" width="12" height="2" fill="#BDBDBD"/>
<rect x="5.5" y="7.5" width="12" height="2" stroke="#3A3A3A"/>
<rect x="0.5" y="7.5" width="3" height="2" fill="#BDBDBD"/>
<rect x="0.5" y="7.5" width="3" height="2" fill="#BDBDBD"/>
<rect x="0.5" y="7.5" width="3" height="2" fill="#BDBDBD"/>
<rect x="0.5" y="7.5" width="3" height="2" fill="#BDBDBD"/>
<rect x="0.5" y="7.5" width="3" height="2" fill="#BDBDBD"/>
<rect x="0.5" y="7.5" width="3" height="2" fill="#BDBDBD"/>
<rect x="0.5" y="7.5" width="3" height="2" stroke="#3A3A3A"/>
</svg>
