<svg width="18" height="18" viewBox="0 0 18 18" fill="none" xmlns="http://www.w3.org/2000/svg">
<rect width="18" height="18" fill="#444444" fill-opacity="0.01"/>
<mask id="path-2-inside-1" fill="white">
<path fill-rule="evenodd" clip-rule="evenodd" d="M11 1H7V7H1V11H7V17H11V11H17V7H11V1Z"/>
</mask>
<path fill-rule="evenodd" clip-rule="evenodd" d="M11 1H7V7H1V11H7V17H11V11H17V7H11V1Z" fill="#BDBDBD"/>
<path d="M7 1V0H6V1H7ZM11 1H12V0H11V1ZM7 7V8H8V7H7ZM1 7V6H0V7H1ZM1 11H0V12H1V11ZM7 11H8V10H7V11ZM7 17H6V18H7V17ZM11 17V18H12V17H11ZM11 11V10H10V11H11ZM17 11V12H18V11H17ZM17 7H18V6H17V7ZM11 7H10V8H11V7ZM7 2H11V0H7V2ZM8 7V1H6V7H8ZM1 8H7V6H1V8ZM2 11V7H0V11H2ZM7 10H1V12H7V10ZM8 17V11H6V17H8ZM11 16H7V18H11V16ZM10 11V17H12V11H10ZM17 10H11V12H17V10ZM16 7V11H18V7H16ZM11 8H17V6H11V8ZM10 1V7H12V1H10Z" fill="#3A3A3A" mask="url(#path-2-inside-1)"/>
</svg>
