<svg width="18" height="18" viewBox="0 0 18 18" fill="none" xmlns="http://www.w3.org/2000/svg">
<rect width="18" height="18" fill="#444444" fill-opacity="0.01"/>
<mask id="path-2-outside-1" maskUnits="userSpaceOnUse" x="2" y="1" width="14" height="16" fill="black">
<rect fill="white" x="2" y="1" width="14" height="16"/>
<path fill-rule="evenodd" clip-rule="evenodd" d="M6 2H7H11H12V3V4H15V5H3V4H6V3V2ZM7 3H11V4H7V3ZM4 7V16H5H7H8H10H11H14V15V7V6H11H10H8H7H4V7ZM11 15V7H10V15H11ZM8 15V7H7V15H8Z"/>
</mask>
<path fill-rule="evenodd" clip-rule="evenodd" d="M6 2H7H11H12V3V4H15V5H3V4H6V3V2ZM7 3H11V4H7V3ZM4 7V16H5H7H8H10H11H14V15V7V6H11H10H8H7H4V7ZM11 15V7H10V15H11ZM8 15V7H7V15H8Z" fill="#BDBDBD"/>
<path d="M6 2V1H5V2H6ZM12 2H13V1H12V2ZM12 4H11V5H12V4ZM15 4H16V3H15V4ZM15 5V6H16V5H15ZM3 5H2V6H3V5ZM3 4V3H2V4H3ZM6 4V5H7V4H6ZM11 3H12V2H11V3ZM7 3V2H6V3H7ZM11 4V5H12V4H11ZM7 4H6V5H7V4ZM4 16H3V17H4V16ZM14 16V17H15V16H14ZM14 6H15V5H14V6ZM4 6V5H3V6H4ZM11 15V16H12V15H11ZM11 7H12V6H11V7ZM10 7V6H9V7H10ZM10 15H9V16H10V15ZM8 15V16H9V15H8ZM8 7H9V6H8V7ZM7 7V6H6V7H7ZM7 15H6V16H7V15ZM7 1H6V3H7V1ZM11 1H7V3H11V1ZM12 1H11V3H12V1ZM13 3V2H11V3H13ZM13 4V3H11V4H13ZM15 3H12V5H15V3ZM16 5V4H14V5H16ZM3 6H15V4H3V6ZM2 4V5H4V4H2ZM6 3H3V5H6V3ZM5 3V4H7V3H5ZM5 2V3H7V2H5ZM11 2H7V4H11V2ZM12 4V3H10V4H12ZM7 5H11V3H7V5ZM6 3V4H8V3H6ZM5 16V7H3V16H5ZM5 15H4V17H5V15ZM7 15H5V17H7V15ZM8 15H7V17H8V15ZM10 15H8V17H10V15ZM11 15H10V17H11V15ZM14 15H11V17H14V15ZM13 15V16H15V15H13ZM13 7V15H15V7H13ZM13 6V7H15V6H13ZM11 7H14V5H11V7ZM10 7H11V5H10V7ZM8 7H10V5H8V7ZM7 7H8V5H7V7ZM4 7H7V5H4V7ZM5 7V6H3V7H5ZM12 15V7H10V15H12ZM11 6H10V8H11V6ZM9 7V15H11V7H9ZM10 16H11V14H10V16ZM9 15V7H7V15H9ZM8 6H7V8H8V6ZM6 7V15H8V7H6ZM7 16H8V14H7V16Z" fill="#3A3A3A" mask="url(#path-2-outside-1)"/>
</svg>
